# AST/ASF file generated using VICON BodyLanguage
# -----------------------------------------------
:version 1.10
:name VICON
:units
  mass 1.0
  length 0.45
  angle deg
:documentation
   .ast/.asf automatically generated from VICON data using
   VICON BodyBuilder and BodyLanguage model FoxedUp or BRILLIANT.MOD
:root
   order TX TY TZ RX RY RZ
   axis XYZ
   position 0 0 0  
   orientation 0 0 0 
:bonedata
  begin
     id 1 
     name lhipjoint
     direction 0.645422 -0.672597 0.361999 
     length 2.39934 
     axis 0 0 0  XYZ
  end
  begin
     id 2 
     name lfemur
     direction 0.34202 -0.939693 0  
     length 6.58112  
     axis 0 0 20  XYZ
    dof rx ry rz
    limits (-160.0 20.0)
           (-70.0 70.0)
           (-60.0 70.0)
  end
  begin
     id 3 
     name ltibia
     direction 0.34202 -0.939693 0   
     length 7.02673   
     axis 0 0 20   XYZ
    dof rx
    limits (-10.0 170.0)
  end
  begin
     id 4 
     name lfoot
     direction 0.0835106 -0.229444 0.969733   
     length 2.08772   
     axis -90 7.62852e-016 20   XYZ
    dof rx rz
    limits (-45.0 90.0)
           (-70.0 20.0)
  end
  begin
     id 5 
     name ltoes
     direction 1.5358e-011 -4.21925e-011 1   
     length 1.04844   
     axis -90 7.62852e-016 20   XYZ
    dof rx
    limits (-90.0 20.0)
  end
  begin
     id 6 
     name rhipjoint
     direction -0.644959 -0.672941 0.362185   
     length 2.39812  
     axis 0 0 0  XYZ 
  end
  begin
     id 7 
     name rfemur
     direction -0.34202 -0.939693 0   
     length 6.67015   
     axis 0 0 -20   XYZ
    dof rx ry rz
    limits (-160.0 20.0)
           (-70.0 70.0)
           (-70.0 60.0)
  end
  begin
     id 8 
     name rtibia
     direction -0.34202 -0.939693 0   
     length 7.35735   
     axis 0 0 -20   XYZ
    dof rx
    limits (-10.0 170.0)
 end
 begin
     id 9 
     name rfoot
     direction -0.0670769 -0.184292 0.98058   
     length 2.25469  
     axis -90 -7.62852e-016 -20   XYZ
    dof rx rz
    limits (-45.0 90.0)
           (-20.0 70.0)
  end
  begin
     id 10 
     name rtoes
     direction -1.53575e-011 -4.21908e-011 1   
     length 1.13399   
     axis -90 -7.62852e-016 -20   XYZ
    dof rx
    limits (-90.0 20.0)
  end
  begin
     id 11 
     name lowerback
     direction -0.0188328 0.993434 -0.112847   
     length 2.27656   
     axis 0 0 0   XYZ
    dof rx ry rz
    limits (-20.0 45.0)
           (-30.0 30.0)
           (-30.0 30.0)
  end
  begin
     id 12 
     name upperback
     direction 0.00983139 0.998968 -0.04435   
     length 2.28631   
     axis 0 0 0   XYZ
    dof rx ry rz
    limits (-20.0 45.0)
           (-30.0 30.0)
           (-30.0 30.0)
  end
  begin
     id 13 
     name thorax
     direction 0.0177718 0.999807 0.00833073   
     length 2.30999   
     axis 0 0 0   XYZ
    dof rx ry rz
    limits (-20.0 45.0)
           (-30.0 30.0)
           (-30.0 30.0)
  end
  begin
     id 14 
     name lowerneck
     direction -0.0835025 0.993181 0.0813558   
     length 1.39447   
     axis 0 0 0   XYZ
    dof rx ry rz
    limits (-20.0 45.0)
           (-30.0 30.0)
           (-30.0 30.0)
  end
  begin
     id 15 
     name upperneck
     direction 0.210059 0.976535 0.0474817   
     length 1.39882   
     axis 0 0 0   XYZ
    dof rx ry rz
    limits (-20.0 45.0)
           (-30.0 30.0)
           (-30.0 30.0)
  end
  begin
     id 16
     name head
     direction 0.0780891 0.996944 -0.00207154  
     length 1.41828  
     axis 0 0 0   XYZ
    dof rx ry rz
    limits (-20.0 45.0)
           (-30.0 30.0)
           (-30.0 30.0)
  end
  begin
     id 17 
     name lclavicle
     direction 0.982414 0.166355 -0.0847829  
     length 3.57922  
     axis 0 0 0   XYZ
    dof ry rz
    limits (-20.0 10.0)
           (0.0 20.0)
  end
  begin
     id 18 
     name lhumerus
     direction 1 -4.48975e-011 5.47647e-028   
     length 4.76405   
     axis -180 -30 -90   XYZ
    dof rx ry rz
    limits (-60.0 90.0)
           (-90.0 90.0)
           (-90.0 90.0)
  end
  begin
     id 19
     name lradius
     direction 1 -4.48949e-011 -8.32142e-027   
     length 3.13759   
     axis -180 -30 -90   XYZ
    dof rx
    limits (-10.0 170.0)
  end
  begin
     id 20
     name lwrist
     direction 1 -4.48978e-011 -1.32705e-026   
     length 1.56879   
     axis 9.60836e-015 90 90   XYZ
    dof ry
    limits (-180.0 0.0)
 end
  begin
     id 21 
     name lhand
     direction 1 -4.48975e-011 -2.65409e-026   
     length 0.732262   
     axis 1.69354e-014 90 90   XYZ
    dof rx rz
    limits (-90.0 90.0)
           (-45.0 45.0)
  end
  begin
     id 22 
     name lfingers
     direction 1 -4.48923e-011 -5.30819e-026   
     length 0.590368   
     axis 3.38708e-014 90 90   XYZ
    dof rx
    limits (0.0 90.0)
  end
  begin
     id 23
     name lthumb
     direction 0.707107 -6.34914e-011 0.707107   
     length 0.847654   
     axis -90 45 2.85299e-015   XYZ
    dof rx rz
    limits (-45.0 45.0)
           (-45.0 45.0)
  end
  begin
     id 24 
     name rclavicle
     direction -0.963658 0.245183 -0.106063   
     length 3.43472  
     axis 0 0 0   XYZ 
    dof ry rz
    limits (-10.0 20.0)
           (-20.0 0.0)
  end
  begin
     id 25 
     name rhumerus
     direction -1 -4.48963e-011 -1.64784e-027  
     length 5.10161   
     axis -180 30 90   XYZ
    dof rx ry rz
    limits (-90.0 60.0)
           (-90.0 90.0)
           (-90.0 90.0)
  end
  begin
     id 26 
     name rradius
     direction -1 -4.48969e-011 -2.87943e-027   
     length 3.23267   
     axis -180 30 90   XYZ
    dof rx
    limits (-10.0 170.0)
  end
  begin
     id 27 
     name rwrist
     direction -1 -4.48982e-011 -1.32705e-026   
     length 1.61633   
     axis 9.60836e-015 -90 -90   XYZ
    dof ry
    limits (-180.0 0.0)
  end
  begin
     id 28
     name rhand
     direction -1 -4.48963e-011 -2.65409e-026   
     length 0.702   
     axis 1.69354e-014 -90 -90   XYZ
    dof rx rz
    limits (-90.0 90.0)
           (-45.0 45.0)
  end
  begin
     id 29
     name rfingers
     direction -1 -4.48934e-011 -5.30819e-026   
     length 0.565971   
     axis 3.38708e-014 -90 -90   XYZ
    dof rx
    limits (0.0 90.0)
  end
  begin
     id 30
     name rthumb
     direction -0.707107 -6.34908e-011 0.707107   
     length 0.812624   
     axis -90 -45 -2.85299e-015   XYZ
    dof rx rz
    limits (-45.0 45.0)
           (-45.0 45.0)
  end
:hierarchy
  begin
    root lhipjoint rhipjoint lowerback
    lhipjoint lfemur
    lfemur ltibia
    ltibia lfoot
    lfoot ltoes
    rhipjoint rfemur
    rfemur rtibia
    rtibia rfoot
    rfoot rtoes
    lowerback upperback
    upperback thorax
    thorax lowerneck lclavicle rclavicle
    lowerneck upperneck
    upperneck head
    lclavicle lhumerus
    lhumerus lradius
    lradius lwrist
    lwrist lhand lthumb
    lhand lfingers
    rclavicle rhumerus
    rhumerus rradius
    rradius rwrist
    rwrist rhand rthumb
    rhand rfingers
  end

#!OML:ASF \\sashay\E\basketball\basketball\Project 1\Capture day 1\Session 1\Subject.ASF
:FULLY-SPECIFIED
:DEGREES
136
root 24.8176 14.9987 7.80698 -113.021 74.2427 -124.017
lowerback 16.4201 -0.519242 6.14615
upperback 6.75203 1.23039 7.68438
thorax -2.0536 0.895428 4.44987
lowerneck -5.99067 -4.31343 -8.12485
upperneck -9.34432 -4.31381 14.5645
head -1.18881 -2.00145 5.71643
rclavicle -6.36111e-015 -3.4191e-014
rhumerus 16.3697 23.2925 -81.0362
rradius 21.8201
rwrist -6.52271
rhand 13.034 6.94592
rfingers 7.12502
rthumb 37.998 -18.8539
lclavicle -6.36111e-015 -3.4191e-014
lhumerus -30.8129 -14.3254 106.321
lradius 61.3908
lwrist 11.2162
lhand -22.7339 29.2812
lfingers 7.12502
lthumb 3.70009 59.2288
rfemur -13.4272 -8.62951 22.6988
rtibia 42.5091
rfoot -17.0967 -8.19798
rtoes -55.03
lfemur -41.8797 14.2633 -19.6341
ltibia 115.87
lfoot -4.81076 -6.0615
ltoes -19.5378
137
root 25.3786 15.0778 7.74929 -115.38 73.7868 -125.731
lowerback 16.4722 0.148081 6.49546
upperback 6.88308 2.14752 7.42072
thorax -1.95084 1.36416 3.80164
lowerneck -6.23107 -5.69504 -8.46957
upperneck -8.74605 -6.18604 15.821
head -0.690554 -2.92235 6.08548
rclavicle -2.50469e-014 -4.29375e-014
rhumerus 14.9858 18.5951 -82.0252
rradius 17.94
rwrist -2.84071
rhand 15.3921 7.38022
rfingers 7.12502
rthumb 40.2206 -17.7789
lclavicle -2.50469e-014 -4.29375e-014
lhumerus -29.3581 -15.3149 105.898
lradius 61.6735
lwrist 10.2188
lhand -20.5069 27.8042
lfingers 7.12502
lthumb 5.85046 57.7035
rfemur -9.17884 -9.2792 22.3148
rtibia 39.8306
rfoot -15.6805 -4.43522
rtoes -54.756
lfemur -44.0961 13.1419 -20.167
ltibia 112.777
lfoot -5.51089 -5.95632
ltoes -20.6957
138
root 25.9509 15.1659 7.68204 -118.415 73.3308 -128.303
lowerback 16.2376 0.73298 6.74348
upperback 7.05193 2.89968 7.12607
thorax -1.6354 1.75361 3.22031
lowerneck -6.11052 -6.84759 -9.21509
upperneck -8.66569 -7.65954 17.7751
head -0.363449 -3.65263 6.75417
rclavicle 1.51076e-014 -4.13472e-014
rhumerus 12.4777 9.70066 -84.2717
rradius 16.1156
rwrist 12.0862
rhand 14.2507 8.48909
rfingers 7.12502
rthumb 39.1459 -16.989
lclavicle 1.51076e-014 -4.13472e-014
lhumerus -27.5272 -16.1984 105.314
lradius 61.7627
lwrist 9.20891
lhand -18.1732 27.1236
lfingers 7.12502
lthumb 8.10321 56.9482
rfemur -4.89674 -10.1228 21.69
rtibia 36.8494
rfoot -13.8335 -0.246019
rtoes -54.4906
lfemur -45.9996 11.8322 -20.7717
ltibia 108.976
lfoot -6.57112 -5.31993
ltoes -21.4807
139
root 26.5523 15.2869 7.60047 -122.536 73.1706 -132.027
lowerback 15.9732 1.30412 6.47915
upperback 7.17348 3.53929 6.70473
thorax -1.36295 2.07303 2.81985
lowerneck -5.20389 -7.74646 -9.12754
upperneck -9.46703 -8.78748 18.9117
head -0.52116 -4.28719 7.08683
rclavicle -6.59965e-014 -9.54166e-015
rhumerus 9.86084 0.67823 -85.6308
rradius 15.2299
rwrist 29.8611
rhand 8.92217 11.7835
rfingers 7.12502
rthumb 34.1033 -14.9772
lclavicle -6.59965e-014 -9.54166e-015
lhumerus -25.6759 -16.9062 104.639
lradius 61.7378
lwrist 8.36307
lhand -18.3945 22.3581
lfingers 7.12502
lthumb 7.88959 52.1909
rfemur -0.864266 -10.7689 20.4577
rtibia 33.6971
rfoot -10.9515 3.73781
rtoes -54.2281
lfemur -47.4215 10.2106 -21.6593
ltibia 104.34
lfoot -5.99454 -4.58556
ltoes -18.8056
140
root 27.1605 15.3841 7.54573 -127.087 72.9681 -136.217
lowerback 15.8232 1.91327 5.81538
upperback 7.13219 4.18547 6.24835
thorax -1.34619 2.376 2.60075
lowerneck -3.78897 -8.63073 -9.68659
upperneck -10.2938 -9.85523 20.8878
head -0.669384 -4.92167 7.82386
rclavicle 4.45278e-014 8.74653e-014
rhumerus 7.20919 -9.01157 -86.4775
rradius 15.0937
rwrist 47.5754
rhand 2.3002 16.035
rfingers 7.12502
rthumb 27.7917 -11.9302
lclavicle 4.45278e-014 8.74653e-014
lhumerus -24.1722 -17.5518 103.887
lradius 61.7152
lwrist 7.7531
lhand -17.5907 20.8341
lfingers 7.12502
lthumb 8.66535 50.6363
rfemur 3.43134 -11.0753 19.3423
rtibia 30.2335
rfoot -7.0997 7.31366
rtoes -53.3277
lfemur -48.3451 8.79895 -22.2828
ltibia 99.4061
lfoot -6.08044 -4.18229
ltoes -16.6406
141
root 27.7667 15.4634 7.49059 -131.306 72.3947 -140.191
lowerback 15.6163 2.40735 5.41007
upperback 7.00729 4.72286 5.82864
thorax -1.37077 2.62782 2.29917
lowerneck -2.55604 -9.46065 -10.1638
upperneck -11.0426 -10.8447 22.7806
head -0.757909 -5.51994 8.52842
rclavicle 1.98785e-015 -4.85035e-014
rhumerus 4.61888 -17.4419 -86.5208
rradius 15.4435
rwrist 62.1108
rhand -4.90698 19.7128
rfingers 7.12502
rthumb 20.8828 -9.18319
lclavicle 1.98785e-015 -4.85035e-014
lhumerus -22.779 -18.1516 103.082
lradius 61.6473
lwrist 7.39337
lhand -17.5595 19.9257
lfingers 7.12502
lthumb 8.69544 49.7266
rfemur 7.67338 -11.0917 18.7105
rtibia 26.9358
rfoot -3.60689 8.03881
rtoes -52.6689
lfemur -49.2242 7.43527 -22.5516
ltibia 94.2193
lfoot -6.37715 -4.03739
ltoes -15.3054
142
root 28.3802 15.5303 7.44051 -135.078 71.5039 -143.67
lowerback 15.3539 2.77238 5.09472
upperback 6.95422 5.11105 5.49663
thorax -1.28737 2.81367 2.07495
lowerneck -1.64506 -10.2996 -10.3596
upperneck -11.6702 -11.8691 24.2263
head -0.781799 -6.12545 9.02639
rclavicle -2.0276e-014 6.36111e-014
rhumerus 2.10098 -21.631 -85.8559
rradius 15.7705
rwrist 65.0893
rhand -9.89671 21.5128
rfingers 7.12502
rthumb 16.0831 -7.8398
lclavicle -2.0276e-014 6.36111e-014
lhumerus -21.3014 -18.5991 102.137
lradius 61.6406
lwrist 7.12826
lhand -18.2834 18.403
lfingers 7.12502
lthumb 7.99684 48.2317
rfemur 11.8603 -10.6263 18.7128
rtibia 24.069
rfoot -0.715261 4.05758
rtoes -52.3674
lfemur -50.089 6.21298 -22.5694
ltibia 88.7001
lfoot -6.51955 -3.91627
ltoes -16.1121
143
root 28.9996 15.6063 7.3925 -138.222 70.5026 -146.745
lowerback 14.8377 3.07673 4.74498
upperback 6.91765 5.39276 5.14373
thorax -1.05144 2.94766 1.88641
lowerneck -0.768029 -11.0859 -10.463
upperneck -12.3088 -12.8225 25.4923
head -0.82028 -6.70188 9.45805
rclavicle 2.3059e-014 -6.44062e-014
rhumerus -0.263427 -24.2025 -85.2445
rradius 16.2144
rwrist 64.3093
rhand -14.0875 23.1085
rfingers 7.12502
rthumb 12.0447 -6.5249
lclavicle 2.3059e-014 -6.44062e-014
lhumerus -19.72 -18.9439 100.966
lradius 61.6879
lwrist 6.99961
lhand -18.9695 17.6733
lfingers 7.12502
lthumb 7.33461 47.5262
rfemur 15.504 -9.97131 19.1577
rtibia 21.7914
rfoot 2.22356 -1.21676
rtoes -49.4936
lfemur -50.6964 5.12831 -22.4652
ltibia 82.7982
lfoot -6.35036 -3.88166
ltoes -15.6969
144
root 29.6168 15.6659 7.35012 -140.781 69.6697 -149.722
lowerback 13.8699 3.36873 4.11167
upperback 6.79945 5.58008 4.7081
thorax -0.678539 3.023 1.81539
lowerneck -0.27363 -11.5173 -10.7197
upperneck -12.5361 -13.3288 26.705
head -0.737868 -7.00895 9.89539
rclavicle -4.73108e-014 -1.66979e-014
rhumerus -2.49448 -25.4555 -84.8931
rradius 16.925
rwrist 60.2808
rhand -16.9815 24.4892
rfingers 7.12502
rthumb 9.25318 -5.28779
lclavicle -4.73108e-014 -1.66979e-014
lhumerus -18.0755 -19.0828 99.5911
lradius 61.7354
lwrist 7.25401
lhand -19.4702 17.7293
lfingers 7.12502
lthumb 6.85131 47.5984
rfemur 18.2943 -9.31697 19.6281
rtibia 20.1478
rfoot 3.65927 -6.80931
rtoes -47.6968
lfemur -51.5432 4.22124 -22.5813
ltibia 76.6388
lfoot -5.61741 -3.54579
ltoes -13.9543
145
root 30.2266 15.7067 7.29032 -142.13 68.3647 -151.553
lowerback 12.8282 3.34639 4.16053
upperback 6.61171 5.45567 4.39623
thorax -0.28285 2.95748 1.54699
lowerneck 0.412833 -11.7837 -10.8042
upperneck -12.7668 -13.6553 27.3537
head -0.788308 -7.2391 10.1524
rclavicle -5.725e-014 1.23246e-014
rhumerus -4.60931 -25.5854 -84.7613
rradius 17.7923
rwrist 54.6681
rhand -18.6947 25.1888
rfingers 7.12502
rthumb 7.59984 -4.65461
lclavicle -5.725e-014 1.23246e-014
lhumerus -16.4214 -18.6889 98.0779
lradius 61.7953
lwrist 7.68229
lhand -19.6979 18.1976
lfingers 7.12502
lthumb 6.63141 48.0738
rfemur 20.683 -9.61294 20.3307
rtibia 19.2142
rfoot 5.51598 -10.6104
rtoes -45.7347
lfemur -52.3075 3.31809 -22.2385
ltibia 70.1997
lfoot -4.76691 -3.01419
ltoes -14.0512
